<svg xmlns="http://www.w3.org/2000/svg" xmlns:xlink="http://www.w3.org/1999/xlink" width="767.525" height="767.525" viewBox="0 0 767.525 767.525">
  <defs>
    <linearGradient id="linear-gradient" y1="-0.138" x2="1.347" y2="1.337" gradientUnits="objectBoundingBox">
      <stop offset="0" stop-color="#0389fb"/>
      <stop offset="1" stop-color="#0171ff"/>
    </linearGradient>
    <filter id="Path_14" x="0" y="0" width="767.525" height="767.525" filterUnits="userSpaceOnUse">
      <feOffset dx="10" dy="10" input="SourceAlpha"/>
      <feGaussianBlur stdDeviation="25" result="blur"/>
      <feFlood flood-opacity="0.251"/>
      <feComposite operator="in" in2="blur"/>
      <feComposite in="SourceGraphic"/>
    </filter>
  </defs>
  <g id="Group_19" data-name="Group 19" transform="translate(-14.741 44.335)">
    <g transform="matrix(1, 0, 0, 1, 14.74, -44.33)" filter="url(#Path_14)">
      <path id="Path_14-2" data-name="Path 14" d="M37.94,0H578.585a37.94,37.94,0,0,1,37.94,37.94V578.585a37.94,37.94,0,0,1-37.94,37.94H37.94A37.94,37.94,0,0,1,0,578.585V37.94A37.94,37.94,0,0,1,37.94,0Z" transform="translate(65.5 65.5)" stroke="#1592e6" stroke-width="1" fill="url(#linear-gradient)"/>
    </g>
    <g id="Group_8" data-name="Group 8" transform="translate(227.641 100.428)">
      <path id="Path_10" data-name="Path 10" d="M760.776,319.7l236.495-250.7H875.181L760.776,190.283V319.7Z" transform="translate(-614.921 -66.317)" fill="#fff"/>
      <path id="Path_11" data-name="Path 11" d="M780.987,194.914V67.305H668.511V522.513H780.987v-327.6Z" transform="translate(-668.511 -67.305)" fill="#fff"/>
      <g id="Group_7" data-name="Group 7" transform="translate(155.584 213.077)">
        <path id="Path_12" data-name="Path 12" d="M840.7,202.093l-73.765,78.2L871.571,447.015H994.413Z" transform="translate(-766.93 -202.093)" fill="#fff"/>
      </g>
    </g>
  </g>
</svg>
